<svg id="Layer_1" data-name="Layer 1" xmlns="http://www.w3.org/2000/svg" viewBox="0 0 1214.61 1280.27"><defs><style>.cls-1{fill:#fff;}</style></defs><path d="M1222.58,1294H8V13.76H1222.58ZM131.8,647.07c0,131.2,1.28,262.41-.64,393.57-.75,51.13,17.92,76.72,70.66,76.61,221.67-.44,443.36,1.31,665-2.34,23.14-.38,45.78-31.22,68.66-47.93-23.46-14.59-46.67-41.38-70.4-41.84-183.29-3.54-366.73-4.48-550-.74-68,1.38-90.57-20.92-89.61-89q4.81-340.2-1.36-680.49c-.46-25.68-32.6-50.79-50.06-76.16-14.09,24.91-39.58,49.46-40.38,74.78C129.52,384.62,131.72,515.88,131.8,647.07Zm936.42-.7c0-131.22-1.26-262.47.65-393.67.72-49.12-12.72-79.33-67.36-79.26-224.46.31-448.95-1.32-673.35,2.6-21.44.37-42.29,34.29-63.41,52.64,22.52,12.65,44.87,35.89,67.6,36.28,180.62,3,361.44,5.63,541.94,0,81.65-2.54,102,26.74,100.6,103.64-4.16,224.1-2.67,448.36,1.19,672.47.41,24,30.93,47.54,47.48,71.3,14.88-24.11,41.82-47.82,42.63-72.39C1070.46,908.9,1068.2,777.6,1068.22,646.37ZM591.65,512.59c54.51,0,109-.81,163.53.26,41.07.81,66.71-9,67.36-58.43.61-46.92-21-64.42-62.95-64.63q-159.4-.81-318.82-.06c-41.73.19-64.11,17.07-63.45,64.26.68,49,25.82,59.76,67.16,58.84C493.52,511.75,542.59,512.58,591.65,512.59ZM542.65,719c0,41.08-5.77,83.33,2.27,122.78,4.46,21.9,36.6,57.64,48.18,54.75,28-7,70.53-30.81,72.85-51.66a1112.07,1112.07,0,0,0,.56-237.46c-2.24-21.41-43-48.87-69.55-53.61-14.2-2.52-45.42,35-52.07,59C535.75,645.91,542.6,683.4,542.65,719Z" transform="translate(-7.97 -13.76)"/><path class="cls-1" d="M131.76,647.07c0-131.19-2.24-262.45,1.87-393.51.8-25.32,26.29-49.87,40.38-74.78,17.46,25.37,49.6,50.48,50.06,76.16q6.1,340.17,1.36,680.49c-1,68.05,21.61,90.35,89.61,89,183.28-3.74,366.72-2.8,550,.74,23.73.46,46.94,27.25,70.4,41.84-22.88,16.71-45.52,47.55-68.66,47.93-221.61,3.65-443.3,1.9-665,2.34-52.74.11-71.41-25.48-70.66-76.61C133.08,909.48,131.8,778.27,131.76,647.07Z" transform="translate(-7.97 -13.76)"/><path class="cls-1" d="M1068.21,646.37c0,131.23,2.25,262.53-2,393.62-.81,24.57-27.75,48.28-42.63,72.39-16.55-23.76-47.07-47.27-47.48-71.3-3.86-224.11-5.35-448.37-1.19-672.47,1.42-76.9-18.95-106.18-100.6-103.64-180.5,5.62-361.32,3-541.94,0-22.73-.39-45.08-23.63-67.6-36.28,21.12-18.35,42-52.27,63.41-52.64,224.4-3.92,448.89-2.29,673.35-2.6,54.64-.07,68.08,30.14,67.36,79.26C1067,383.9,1068.22,515.15,1068.21,646.37Z" transform="translate(-7.97 -13.76)"/><path class="cls-1" d="M591.65,512.58c-49.06,0-98.13-.83-147.17.25C403.14,513.75,378,503,377.32,454c-.66-47.19,21.72-64.07,63.45-64.26q159.4-.75,318.82.06c42,.21,63.56,17.71,62.95,64.63-.65,49.44-26.29,59.24-67.36,58.43C700.69,511.78,646.16,512.59,591.65,512.58Z" transform="translate(-7.97 -13.76)"/><path class="cls-1" d="M542.62,719c0-35.61-6.87-73.1,2.27-106.18,6.65-24.07,37.87-61.54,52.07-59,26.6,4.74,67.31,32.2,69.55,53.61A1112.07,1112.07,0,0,1,666,844.88c-2.32,20.85-44.89,44.7-72.85,51.66-11.58,2.89-43.72-32.85-48.18-54.75C536.88,802.34,542.65,760.09,542.62,719Z" transform="translate(-7.97 -13.76)"/></svg>