<?xml version="1.0" encoding="UTF-8"?><svg id="Layer_1" xmlns="http://www.w3.org/2000/svg" viewBox="0 0 147.95 131.78"><defs><style>.cls-1{fill:#fff;}</style></defs><path class="cls-1" d="M28.67,91.04c0-7.01-.09-14.01,.04-21.01,.04-2.53-.82-3.65-3.37-3.32-.26,.03-.52,0-.78,0-2.63,.02-5.49,.27-6.56-2.87-1.1-3.23,1.64-4.61,3.62-6.18,14.15-11.2,28.33-22.37,42.51-33.55,2.04-1.61,4.15-3.13,6.11-4.83,2.64-2.29,5.01-1.99,7.65,.1,16.38,12.99,32.82,25.91,49.24,38.85,1.89,1.49,4.15,3.29,2.56,5.72-.96,1.46-3.49,2.46-5.41,2.63-5.02,.44-5.05,.22-5.05,5.23,0,13.1,.02,26.2,.03,39.3,0,5-.8,5.87-5.89,5.91-6.89,.05-13.78,.06-20.66,0-4.25-.04-5.28-1.09-5.32-5.36-.07-8.04,0-16.09-.04-24.13-.03-5.08-1.09-6.11-6.25-6.15-4.68-.04-9.36-.04-14.04,0-5.5,.04-6.49,1.07-6.5,6.72-.02,7.78,.03,15.57-.03,23.35-.03,4.56-1.01,5.56-5.47,5.6-7.02,.06-14.04,.06-21.06-.02-4.31-.05-5.26-1.03-5.29-5.37-.06-6.87-.01-13.75-.02-20.63Z"/></svg>