<?xml version="1.0" encoding="UTF-8"?><svg id="Layer_1" xmlns="http://www.w3.org/2000/svg" viewBox="0 0 147.95 131.78"><defs><style>.cls-1{fill:#fff;}.cls-2{fill:none;stroke:#fff;stroke-linecap:round;stroke-linejoin:round;stroke-width:6px;}</style></defs><path class="cls-1" d="M116.92,56.47l-.08-.2,.08-40.43c0-2.85-2.35-5.16-5.24-5.16h-42.42c-.07,0-.14,.02-.21,.02-.33,0-.66,0-1,0-4.45,.03-6.19,1.81-6.2,6.32-.02,8.68-.01,15.9-.02,24.58,0,.8-.07,1.61-.12,2.53-5.87-2.57-7.48-2.94-11.82-2.8-11.25,.36-20.08,8.89-20.68,20.78-.51,10.06,6.33,19.49,17.32,21.65,13.69,2.69,25.72-7.72,25.68-22.04-.04-13.21,0-24.97,.02-38.17,0-.69,.07-1.38,.13-2.54,3.66,0,7.08,.04,10.51-.01,0,0,.02,0,.03,0h23.53v30.52c-.02,.31-.03,.62-.04,.96-.02,8.68-.01,17.35-.02,26.03,0,.8-.07,1.61-.12,2.53-5.87-2.57-7.48-2.94-11.82-2.8-11.25,.36-20.08,8.89-20.68,20.79-.51,10.06,6.33,19.49,17.32,21.65,13.69,2.69,25.72-7.72,25.68-22.04,0-2.15,0-4.31,0-6.46l.07-34.26c.02-.4,.06-.87,.09-1.45Zm-66.3,20.06c-7.65-.07-14.06-6.59-13.92-14.16,.14-7.59,6.47-13.84,14.01-13.85,7.63,0,14.07,6.44,14.03,14.06-.03,7.65-6.49,14.03-14.12,13.96Zm44.55,36.91c-7.65-.07-14.06-6.59-13.92-14.16,.14-7.59,6.47-13.84,14.01-13.85,7.63,0,14.07,6.44,14.03,14.06-.03,7.65-6.49,14.03-14.12,13.96Z"/><g><line class="cls-2" x1="95.33" y1="91.53" x2="95.33" y2="107.33"/><line class="cls-2" x1="87.37" y1="99.43" x2="103.17" y2="99.43"/></g></svg>