<?xml version="1.0" encoding="UTF-8"?><svg xmlns="http://www.w3.org/2000/svg" viewBox="0 0 104.09 104.14"><defs><style>.d{fill:#fff;}</style></defs><g id="a"/><g id="b"><g id="c"><g><path class="d" d="M36.66,74.08c-.19,.21-.25,.69-.16,.97,1.1,3.08,.57,5.85-1.7,8.16-6.13,6.24-12.27,12.46-18.48,18.61-3.15,3.12-7.45,3.06-10.68,.03-1.02-.96-2-1.98-2.99-2.98-3.55-3.57-3.54-7.94,.05-11.51,5.93-5.9,11.88-11.78,17.81-17.69,2.49-2.48,5.32-3.21,8.64-1.9,.22,.09,.63,.06,.79-.08,1.1-1.02,2.15-2.09,3.25-3.17-6.87-9.17-9.82-19.32-8.11-30.61,1.71-11.29,7.33-20.27,16.67-26.79,15.53-10.83,36.87-9.32,50.77,4.66,14.33,14.42,15.52,37.07,2.65,53.12-11.81,14.73-36.21,21.02-55.49,6.04-1.03,1.07-2.06,2.08-3.01,3.15ZM64.38,7.39c-18.08-.02-32.44,14.52-32.42,32.42,.02,17.92,14.56,32.39,32.39,32.36,17.87-.03,32.37-14.52,32.41-32.38,.04-17.79-14.42-32.39-32.38-32.41Z"/><path class="d" d="M84.88,29.82c-.01,8.64-2.83,15.98-9.07,21.83-6.22,5.83-13.69,8.21-22.23,7.65,5.54,4.56,17.3,6.36,26.27-.84,9.35-7.5,10.38-20.44,5.02-28.64Z"/></g></g></g></svg>