<svg id="visual" viewBox="0 0 1000 720" width="1000" height="720" xmlns="http://www.w3.org/2000/svg" xmlns:xlink="http://www.w3.org/1999/xlink" version="1.1"><rect x="0" y="0" width="1000" height="720" fill="#001220"></rect><defs><linearGradient id="grad1_0" x1="28%" y1="0%" x2="100%" y2="100%"><stop offset="22.222222222222225%" stop-color="#ff0066" stop-opacity="1"></stop><stop offset="77.77777777777777%" stop-color="#ff0066" stop-opacity="1"></stop></linearGradient></defs><defs><linearGradient id="grad1_1" x1="28%" y1="0%" x2="100%" y2="100%"><stop offset="22.222222222222225%" stop-color="#ff0066" stop-opacity="1"></stop><stop offset="77.77777777777777%" stop-color="#b51f80" stop-opacity="1"></stop></linearGradient></defs><defs><linearGradient id="grad1_2" x1="28%" y1="0%" x2="100%" y2="100%"><stop offset="22.222222222222225%" stop-color="#623078" stop-opacity="1"></stop><stop offset="77.77777777777777%" stop-color="#b51f80" stop-opacity="1"></stop></linearGradient></defs><defs><linearGradient id="grad1_3" x1="28%" y1="0%" x2="100%" y2="100%"><stop offset="22.222222222222225%" stop-color="#623078" stop-opacity="1"></stop><stop offset="77.77777777777777%" stop-color="#1c2853" stop-opacity="1"></stop></linearGradient></defs><defs><linearGradient id="grad1_4" x1="28%" y1="0%" x2="100%" y2="100%"><stop offset="22.222222222222225%" stop-color="#001220" stop-opacity="1"></stop><stop offset="77.77777777777777%" stop-color="#1c2853" stop-opacity="1"></stop></linearGradient></defs><defs><linearGradient id="grad2_0" x1="0%" y1="0%" x2="72%" y2="100%"><stop offset="22.222222222222225%" stop-color="#ff0066" stop-opacity="1"></stop><stop offset="77.77777777777777%" stop-color="#ff0066" stop-opacity="1"></stop></linearGradient></defs><defs><linearGradient id="grad2_1" x1="0%" y1="0%" x2="72%" y2="100%"><stop offset="22.222222222222225%" stop-color="#b51f80" stop-opacity="1"></stop><stop offset="77.77777777777777%" stop-color="#ff0066" stop-opacity="1"></stop></linearGradient></defs><defs><linearGradient id="grad2_2" x1="0%" y1="0%" x2="72%" y2="100%"><stop offset="22.222222222222225%" stop-color="#b51f80" stop-opacity="1"></stop><stop offset="77.77777777777777%" stop-color="#623078" stop-opacity="1"></stop></linearGradient></defs><defs><linearGradient id="grad2_3" x1="0%" y1="0%" x2="72%" y2="100%"><stop offset="22.222222222222225%" stop-color="#1c2853" stop-opacity="1"></stop><stop offset="77.77777777777777%" stop-color="#623078" stop-opacity="1"></stop></linearGradient></defs><defs><linearGradient id="grad2_4" x1="0%" y1="0%" x2="72%" y2="100%"><stop offset="22.222222222222225%" stop-color="#1c2853" stop-opacity="1"></stop><stop offset="77.77777777777777%" stop-color="#001220" stop-opacity="1"></stop></linearGradient></defs><g transform="translate(1000, 0)"><path d="M0 277.3C-24.7 257.8 -49.4 238.4 -73.9 227.3C-98.3 216.2 -122.6 213.5 -149.3 205.5C-175.9 197.4 -204.9 184 -224.3 163C-243.7 141.9 -253.4 113.1 -260.6 84.7C-267.8 56.2 -272.5 28.1 -277.3 0L0 0Z" fill="#051e3a"></path><path d="M0 221.8C-19.7 206.2 -39.5 190.7 -59.1 181.8C-78.7 173 -98.1 170.8 -119.4 164.4C-140.8 158 -164 147.2 -179.4 130.4C-194.9 113.5 -202.7 90.5 -208.5 67.7C-214.2 45 -218 22.5 -221.8 0L0 0Z" fill="#3c2e68"></path><path d="M0 166.4C-14.8 154.7 -29.6 143 -44.3 136.4C-59 129.7 -73.6 128.1 -89.6 123.3C-105.6 118.5 -123 110.4 -134.6 97.8C-146.2 85.1 -152 67.9 -156.4 50.8C-160.7 33.7 -163.5 16.9 -166.4 0L0 0Z" fill="#8c2b80"></path><path d="M0 110.9C-9.9 103.1 -19.7 95.3 -29.5 90.9C-39.3 86.5 -49.1 85.4 -59.7 82.2C-70.4 79 -82 73.6 -89.7 65.2C-97.5 56.8 -101.3 45.2 -104.2 33.9C-107.1 22.5 -109 11.2 -110.9 0L0 0Z" fill="#dd0977"></path><path d="M0 55.5C-4.9 51.6 -9.9 47.7 -14.8 45.5C-19.7 43.2 -24.5 42.7 -29.9 41.1C-35.2 39.5 -41 36.8 -44.9 32.6C-48.7 28.4 -50.7 22.6 -52.1 16.9C-53.6 11.2 -54.5 5.6 -55.5 0L0 0Z" fill="#ff0066"></path></g><g transform="translate(0, 720)"><path d="M0 -277.3C21.2 -251.6 42.4 -225.9 72 -221.6C101.6 -217.3 139.5 -234.5 163 -224.3C186.4 -214.1 195.4 -176.7 203.1 -147.5C210.7 -118.4 217.1 -97.7 229.2 -74.5C241.3 -51.3 259.3 -25.6 277.3 0L0 0Z" fill="#051e3a"></path><path d="M0 -221.8C17 -201.2 33.9 -180.7 57.6 -177.3C81.3 -173.9 111.6 -187.6 130.4 -179.4C149.1 -171.3 156.3 -141.3 162.5 -118C168.6 -94.7 173.6 -78.1 183.4 -59.6C193.1 -41 207.4 -20.5 221.8 0L0 0Z" fill="#3c2e68"></path><path d="M0 -166.4C12.7 -150.9 25.5 -135.5 43.2 -133C60.9 -130.4 83.7 -140.7 97.8 -134.6C111.9 -128.5 117.2 -106 121.8 -88.5C126.4 -71.1 130.2 -58.6 137.5 -44.7C144.8 -30.8 155.6 -15.4 166.4 0L0 0Z" fill="#8c2b80"></path><path d="M0 -110.9C8.5 -100.6 17 -90.3 28.8 -88.6C40.6 -86.9 55.8 -93.8 65.2 -89.7C74.6 -85.7 78.2 -70.7 81.2 -59C84.3 -47.4 86.8 -39.1 91.7 -29.8C96.5 -20.5 103.7 -10.3 110.9 0L0 0Z" fill="#dd0977"></path><path d="M0 -55.5C4.2 -50.3 8.5 -45.2 14.4 -44.3C20.3 -43.5 27.9 -46.9 32.6 -44.9C37.3 -42.8 39.1 -35.3 40.6 -29.5C42.1 -23.7 43.4 -19.5 45.8 -14.9C48.3 -10.3 51.9 -5.1 55.5 0L0 0Z" fill="#ff0066"></path></g></svg>