<?xml version="1.0" encoding="UTF-8"?><svg xmlns="http://www.w3.org/2000/svg" viewBox="0 0 127.34 89.97"><defs><style>.d{fill:#fff;}</style></defs><g id="a"/><g id="b"><g id="c"><g><rect class="d" x="0" y="74.86" width="51.44" height="11.23" rx="5.61" ry="5.61"/><path class="d" d="M46.23,46.39H5.21c-2.87,0-5.21,2.35-5.21,5.21s2.35,5.21,5.21,5.21H46.23c2.87,0,5.21-2.35,5.21-5.21s-2.35-5.21-5.21-5.21Z"/><path class="d" d="M4.81,27.14H81.76c2.65,0,4.81-2.17,4.81-4.81s-2.17-4.81-4.81-4.81H4.81c-2.65,0-4.81,2.17-4.81,4.81s2.17,4.81,4.81,4.81Z"/></g><path class="d" d="M121.23,0h-19.94c-3.36,0-6.12,2.75-6.12,6.12V42.34c-3.92-2.42-8.54-3.82-13.48-3.82-14.21,0-25.72,11.52-25.72,25.72s11.52,25.72,25.72,25.72,25.72-11.52,25.72-25.72c0-.75-.04-1.48-.1-2.21,.06-.35,.1-.71,.1-1.07V12.24h13.82c3.37,0,6.12-2.75,6.12-6.12s-2.75-6.12-6.12-6.12Zm-39.5,81c-9.39,0-17-7.61-17-17s7.61-17,17-17,17,7.61,17,17-7.61,17-17,17Z"/></g></g></svg>